# xmcd
#
# Track frame offsets:
#       150
#       21938
#       42784
#       74916
#       90434
#       109245
#       131496
#       152659
#       167396
#       184797
#       200159
#       216462
#       238723
#       255495
#
# Disc length: 3739 seconds
#
# Revision: 0
# Processed by: cddbd v1.4PL0 Copyright (c) Steve Scherf et al.
#
# Submitted via: MusicManager v5.1.0.0
#
DISCID=c70e990e
DTITLE=Willie Nelson - Across The Borderline
DYEAR=1900
DGENRE=country
TTITLE0=Across The Borderline
TTITLE1=American Tune
TTITLE2=Don't Give Up
TTITLE3=Farther Down The Line
TTITLE4=Getting Over You
TTITLE5=Graceland
TTITLE6=Heartland
TTITLE7=I Love The Life I Live
TTITLE8=If I Were The Man You Wanted
TTITLE9=She's Not For You
TTITLE10=Still Is Still Moving To Me
TTITLE11=The Most Unoriginal Sin
TTITLE12=Valentine
TTITLE13=What Was It You Wanted
EXTD=
EXTT0=
EXTT1=
EXTT2=
EXTT3=
EXTT4=
EXTT5=
EXTT6=
EXTT7=
EXTT8=
EXTT9=
EXTT10=
EXTT11=
EXTT12=
EXTT13=
PLAYORDER=
